<svg width="27" height="27" viewBox="0 0 27 27" fill="none" xmlns="http://www.w3.org/2000/svg">
<g clip-path="url(#clip0_45_1992)">
<mask id="mask0_45_1992" style="mask-type:luminance" maskUnits="userSpaceOnUse" x="0" y="0" width="27" height="27">
<path d="M13.5 27C20.9558 27 27 20.9558 27 13.5C27 6.04416 20.9558 0 13.5 0C6.04416 0 0 6.04416 0 13.5C0 20.9558 6.04416 27 13.5 27Z" fill="white"/>
</mask>
<g mask="url(#mask0_45_1992)">
<path d="M13.5 0H27V3.375L25.3125 5.0625L27 6.75V10.125L25.3125 11.8125L27 13.5V16.875L25.3125 18.5625L27 20.25V23.625L13.5 25.3125L0 23.625V20.25L1.6875 18.5625L0 16.875V13.5L13.5 0Z" fill="#EEEEEE"/>
<path d="M11.8125 3.375H27V6.75H11.8125V3.375ZM11.8125 10.125H27V13.5H13.5L11.8125 10.125ZM0 16.875H27V20.25H0V16.875ZM0 23.625H27V27H0V23.625Z" fill="#D80027"/>
<path d="M0 0H13.5V13.5H0V0Z" fill="#0052B4"/>
<path d="M9.86133 12.8145L12.8672 10.6523H9.17578L12.1816 12.8145L11.0215 9.28125L9.86133 12.8145ZM5.58984 12.8145L8.5957 10.6523H4.9043L7.91016 12.8145L6.75 9.28125L5.58984 12.8145ZM1.31836 12.8145L4.32422 10.6523H0.632812L3.63867 12.8145L2.47852 9.28125L1.31836 12.8145ZM9.86133 8.54297L12.8672 6.38086H9.17578L12.1816 8.54297L11.0215 5.00977L9.86133 8.54297ZM5.58984 8.54297L8.5957 6.38086H4.9043L7.91016 8.54297L6.75 5.00977L5.58984 8.54297ZM1.31836 8.54297L4.32422 6.38086H0.632812L3.63867 8.54297L2.47852 5.00977L1.31836 8.54297ZM9.86133 4.21875L12.8672 2.05664H9.17578L12.1816 4.21875L11.0215 0.685547L9.86133 4.21875ZM5.58984 4.21875L8.5957 2.05664H4.9043L7.91016 4.21875L6.75 0.685547L5.58984 4.21875ZM1.31836 4.21875L4.32422 2.05664H0.632812L3.63867 4.21875L2.47852 0.685547L1.31836 4.21875Z" fill="#EEEEEE"/>
</g>
</g>
<defs>
<clipPath id="clip0_45_1992">
<rect width="27" height="27" fill="white"/>
</clipPath>
</defs>
</svg>
