<svg width="27" height="27" viewBox="0 0 27 27" fill="none" xmlns="http://www.w3.org/2000/svg">
<g clip-path="url(#clip0_45_2001)">
<path d="M0.801758 13.4996C0.801758 19.0262 4.34551 23.709 9.23926 25.4387V1.56055C4.34551 3.29023 0.801758 7.97305 0.801758 13.4996Z" fill="#002495"/>
<path d="M26.1143 13.4996C26.1143 7.97305 22.6127 3.29023 17.6768 1.56055V25.4387C22.6127 23.709 26.1143 19.0262 26.1143 13.4996Z" fill="#ED2939"/>
<path d="M9.23926 25.4391C10.5471 25.9031 11.9814 26.1562 13.458 26.1562C14.9346 26.1562 16.3689 25.9031 17.6768 25.4391V1.56094C16.3689 1.09688 14.9768 0.84375 13.458 0.84375C11.9393 0.84375 10.5471 1.09688 9.23926 1.56094V25.4391Z" fill="white"/>
</g>
<defs>
<clipPath id="clip0_45_2001">
<rect width="27" height="27" fill="white"/>
</clipPath>
</defs>
</svg>
