<svg width="56" height="56" viewBox="0 0 56 56" fill="none" xmlns="http://www.w3.org/2000/svg">
<circle cx="28" cy="28" r="27.5" stroke="#EDEDEE"/>
<g clip-path="url(#clip0_4_425)">
<path d="M27.6236 23.2221C26.7476 23.2221 25.3916 22.2261 23.9636 22.2621C22.0796 22.2861 20.3516 23.3541 19.3796 25.0461C17.4236 28.4421 18.8756 33.4581 20.7836 36.2181C21.7196 37.5621 22.8236 39.0741 24.2876 39.0261C25.6916 38.9661 26.2196 38.1141 27.9236 38.1141C29.6156 38.1141 30.0956 39.0261 31.5836 38.9901C33.0956 38.9661 34.0556 37.6221 34.9796 36.2661C36.0476 34.7061 36.4916 33.1941 36.5156 33.1101C36.4796 33.0981 33.5756 31.9821 33.5396 28.6221C33.5156 25.8141 35.8316 24.4701 35.9396 24.4101C34.6196 22.4781 32.5916 22.2621 31.8836 22.2141C30.0356 22.0701 28.4876 23.2221 27.6236 23.2221ZM30.7436 20.3901C31.5236 19.4541 32.0396 18.1461 31.8956 16.8501C30.7796 16.8981 29.4356 17.5941 28.6316 18.5301C27.9116 19.3581 27.2876 20.6901 27.4556 21.9621C28.6916 22.0581 29.9636 21.3261 30.7436 20.3901Z" fill="#303031"/>
</g>
<defs>
<clipPath id="clip0_4_425">
<rect width="24" height="24" fill="white" transform="translate(16 16)"/>
</clipPath>
</defs>
</svg>
