<svg width="56" height="56" viewBox="0 0 56 56" fill="none" xmlns="http://www.w3.org/2000/svg">
<circle cx="28" cy="28" r="27.5" stroke="#EDEDEE"/>
<path fill-rule="evenodd" clip-rule="evenodd" d="M39.52 28.2729C39.52 27.422 39.4436 26.6038 39.3018 25.8184H28V30.4602H34.4582C34.18 31.9602 33.3345 33.2311 32.0636 34.082V37.0929H35.9418C38.2109 35.0038 39.52 31.9275 39.52 28.2729Z" fill="#4285F4"/>
<path fill-rule="evenodd" clip-rule="evenodd" d="M27.9981 39.9998C31.2381 39.9998 33.9544 38.9252 35.9399 37.0925L32.0617 34.0816C30.9871 34.8016 29.6126 35.2271 27.9981 35.2271C24.8726 35.2271 22.2271 33.1161 21.2835 30.2798H17.2744V33.3889C19.249 37.3107 23.3071 39.9998 27.9981 39.9998Z" fill="#34A853"/>
<path fill-rule="evenodd" clip-rule="evenodd" d="M21.2855 30.2799C21.0455 29.5599 20.9091 28.7908 20.9091 27.9999C20.9091 27.209 21.0455 26.4399 21.2855 25.7199V22.6108H17.2764C16.4636 24.2308 16 26.0636 16 27.9999C16 29.9363 16.4636 31.769 17.2764 33.389L21.2855 30.2799Z" fill="#FBBC05"/>
<path fill-rule="evenodd" clip-rule="evenodd" d="M27.9981 20.7727C29.7599 20.7727 31.3417 21.3782 32.5853 22.5673L36.0271 19.1255C33.949 17.1891 31.2326 16 27.9981 16C23.3071 16 19.249 18.6891 17.2744 22.6109L21.2835 25.72C22.2271 22.8836 24.8726 20.7727 27.9981 20.7727Z" fill="#EA4335"/>
</svg>
