<svg width="24" height="24" viewBox="0 0 24 24" fill="none" xmlns="http://www.w3.org/2000/svg">
<g clip-path="url(#clip0_5_1469)">
<path d="M13.0603 8.11023L14.4753 9.52523C15.1253 10.1753 15.641 10.947 15.9928 11.7963C16.3447 12.6456 16.5258 13.5559 16.5258 14.4752C16.5258 15.3945 16.3447 16.3049 15.9928 17.1542C15.641 18.0035 15.1253 18.7752 14.4753 19.4252L14.1213 19.7782C12.8084 21.0911 11.0279 21.8286 9.17126 21.8286C7.31465 21.8286 5.53408 21.0911 4.22126 19.7782C2.90843 18.4654 2.1709 16.6848 2.1709 14.8282C2.1709 12.9716 2.90843 11.1911 4.22126 9.87823L5.63626 11.2932C5.16863 11.7568 4.79716 12.3081 4.54318 12.9156C4.28921 13.5231 4.15773 14.1748 4.15628 14.8333C4.15484 15.4917 4.28347 16.144 4.53478 16.7526C4.78609 17.3612 5.15514 17.9142 5.62074 18.3798C6.08633 18.8453 6.63931 19.2144 7.24791 19.4657C7.85652 19.717 8.50877 19.8456 9.16722 19.8442C9.82567 19.8428 10.4774 19.7113 11.0849 19.4573C11.6924 19.2033 12.2437 18.8319 12.7073 18.3642L13.0613 18.0102C13.9986 17.0726 14.5252 15.8011 14.5252 14.4752C14.5252 13.1494 13.9986 11.8779 13.0613 10.9402L11.6463 9.52523L13.0613 8.11123L13.0603 8.11023ZM19.7783 14.1212L18.3643 12.7072C18.8319 12.2437 19.2034 11.6923 19.4573 11.0848C19.7113 10.4773 19.8428 9.82565 19.8442 9.1672C19.8457 8.50875 19.717 7.8565 19.4657 7.24789C19.2144 6.63928 18.8454 6.08631 18.3798 5.62071C17.9142 5.15512 17.3612 4.78607 16.7526 4.53476C16.144 4.28345 15.4917 4.15482 14.8333 4.15626C14.1748 4.1577 13.5232 4.28919 12.9157 4.54316C12.3082 4.79714 11.7568 5.1686 11.2933 5.63623L10.9393 5.99023C10.0019 6.92787 9.47532 8.19941 9.47532 9.52523C9.47532 10.8511 10.0019 12.1226 10.9393 13.0602L12.3543 14.4752L10.9393 15.8892L9.52526 14.4752C8.87517 13.8252 8.35949 13.0535 8.00766 12.2042C7.65583 11.3549 7.47475 10.4445 7.47475 9.52523C7.47475 8.60592 7.65583 7.69561 8.00766 6.84628C8.35949 5.99696 8.87517 5.22525 9.52526 4.57523L9.87926 4.22223C11.1921 2.90941 12.9726 2.17188 14.8293 2.17188C16.6859 2.17188 18.4664 2.90941 19.7793 4.22223C21.0921 5.53505 21.8296 7.31562 21.8296 9.17223C21.8296 11.0288 21.0921 12.8094 19.7793 14.1222L19.7783 14.1212Z" fill="white"/>
</g>
<defs>
<clipPath id="clip0_5_1469">
<rect width="24" height="24" fill="white"/>
</clipPath>
</defs>
</svg>
