<svg width="15" height="18" viewBox="0 0 15 18" fill="none" xmlns="http://www.w3.org/2000/svg">
<path d="M7.5 15.5459L11.4188 11.6272C12.1937 10.8521 12.7214 9.86471 12.9352 8.78975C13.149 7.71479 13.0392 6.60057 12.6198 5.588C12.2003 4.57542 11.49 3.70997 10.5787 3.10107C9.66742 2.49217 8.59602 2.16717 7.5 2.16717C6.40399 2.16717 5.33259 2.49217 4.42128 3.10107C3.50997 3.70997 2.79968 4.57542 2.38022 5.588C1.96077 6.60057 1.851 7.71479 2.06478 8.78975C2.27856 9.86471 2.80629 10.8521 3.58125 11.6272L7.5 15.5459ZM7.5 17.7848L2.46184 12.7466C1.4654 11.7501 0.786814 10.4806 0.511902 9.09848C0.236989 7.71637 0.378093 6.28377 0.91737 4.98186C1.45665 3.67994 2.36988 2.56717 3.54157 1.78427C4.71327 1.00137 6.09081 0.583496 7.5 0.583496C8.90919 0.583496 10.2867 1.00137 11.4584 1.78427C12.6301 2.56717 13.5434 3.67994 14.0826 4.98186C14.6219 6.28377 14.763 7.71637 14.4881 9.09848C14.2132 10.4806 13.5346 11.7501 12.5382 12.7466L7.5 17.7848ZM7.5 9.29177C7.91993 9.29177 8.32265 9.12495 8.61959 8.82802C8.91652 8.53109 9.08333 8.12836 9.08333 7.70843C9.08333 7.28851 8.91652 6.88578 8.61959 6.58885C8.32265 6.29192 7.91993 6.1251 7.5 6.1251C7.08008 6.1251 6.67735 6.29192 6.38042 6.58885C6.08348 6.88578 5.91667 7.28851 5.91667 7.70843C5.91667 8.12836 6.08348 8.53109 6.38042 8.82802C6.67735 9.12495 7.08008 9.29177 7.5 9.29177ZM7.5 10.8751C6.66015 10.8751 5.8547 10.5415 5.26083 9.94761C4.66697 9.35374 4.33334 8.54829 4.33334 7.70843C4.33334 6.86858 4.66697 6.06313 5.26083 5.46926C5.8547 4.8754 6.66015 4.54177 7.5 4.54177C8.33985 4.54177 9.14531 4.8754 9.73917 5.46926C10.333 6.06313 10.6667 6.86858 10.6667 7.70843C10.6667 8.54829 10.333 9.35374 9.73917 9.94761C9.14531 10.5415 8.33985 10.8751 7.5 10.8751Z" fill="#F37B1C"/>
</svg>
