<svg width="15" height="18" viewBox="0 0 15 18" fill="none" xmlns="http://www.w3.org/2000/svg">
<path d="M2.75 6.33317V5.5415C2.75 4.28173 3.25045 3.07354 4.14124 2.18275C5.03204 1.29195 6.24022 0.791504 7.5 0.791504C8.75978 0.791504 9.96796 1.29195 10.8588 2.18275C11.7496 3.07354 12.25 4.28173 12.25 5.5415V6.33317H13.8333C14.0433 6.33317 14.2447 6.41658 14.3931 6.56504C14.5416 6.71351 14.625 6.91487 14.625 7.12484V16.6248C14.625 16.8348 14.5416 17.0362 14.3931 17.1846C14.2447 17.3331 14.0433 17.4165 13.8333 17.4165H1.16667C0.956704 17.4165 0.75534 17.3331 0.606874 17.1846C0.458407 17.0362 0.375 16.8348 0.375 16.6248V7.12484C0.375 6.91487 0.458407 6.71351 0.606874 6.56504C0.75534 6.41658 0.956704 6.33317 1.16667 6.33317H2.75ZM13.0417 7.9165H1.95833V15.8332H13.0417V7.9165ZM6.70833 12.4543C6.40648 12.2801 6.17057 12.0111 6.03719 11.689C5.90381 11.367 5.88041 11.01 5.97062 10.6733C6.06083 10.3367 6.25961 10.0392 6.53613 9.82699C6.81265 9.61481 7.15145 9.4998 7.5 9.4998C7.84855 9.4998 8.18735 9.61481 8.46387 9.82699C8.74039 10.0392 8.93917 10.3367 9.02938 10.6733C9.11959 11.01 9.09619 11.367 8.96281 11.689C8.82943 12.0111 8.59352 12.2801 8.29167 12.4543V14.2498H6.70833V12.4543ZM4.33333 6.33317H10.6667V5.5415C10.6667 4.70165 10.333 3.8962 9.73917 3.30233C9.14531 2.70847 8.33985 2.37484 7.5 2.37484C6.66015 2.37484 5.85469 2.70847 5.26083 3.30233C4.66696 3.8962 4.33333 4.70165 4.33333 5.5415V6.33317Z" fill="#F37B1C"/>
</svg>
