<svg width="17" height="15" viewBox="0 0 17 15" fill="none" xmlns="http://www.w3.org/2000/svg">
<path d="M1.37467 0.375H15.6247C15.8346 0.375 16.036 0.458407 16.1845 0.606874C16.3329 0.75534 16.4163 0.956704 16.4163 1.16667V13.8333C16.4163 14.0433 16.3329 14.2447 16.1845 14.3931C16.036 14.5416 15.8346 14.625 15.6247 14.625H1.37467C1.16471 14.625 0.963348 14.5416 0.814882 14.3931C0.666415 14.2447 0.583008 14.0433 0.583008 13.8333V1.16667C0.583008 0.956704 0.666415 0.75534 0.814882 0.606874C0.963348 0.458407 1.16471 0.375 1.37467 0.375ZM14.833 3.73008L8.55667 9.35092L2.16634 3.71267V13.0417H14.833V3.73008ZM2.57088 1.95833L8.54797 7.23242L14.4388 1.95833H2.57088Z" fill="#F37B1C"/>
</svg>
