<svg width="22" height="22" viewBox="0 0 22 22" fill="none" xmlns="http://www.w3.org/2000/svg">
<path d="M18.333 15.583H20.1663V17.4163H1.83301V15.583H3.66634V9.16634C3.66634 7.22142 4.43896 5.35616 5.81422 3.98089C7.18949 2.60562 9.05475 1.83301 10.9997 1.83301C12.9446 1.83301 14.8099 2.60562 16.1851 3.98089C17.5604 5.35616 18.333 7.22142 18.333 9.16634V15.583ZM16.4997 15.583V9.16634C16.4997 7.70765 15.9202 6.3087 14.8888 5.27725C13.8573 4.2458 12.4584 3.66634 10.9997 3.66634C9.54098 3.66634 8.14204 4.2458 7.11059 5.27725C6.07914 6.3087 5.49967 7.70765 5.49967 9.16634V15.583H16.4997ZM8.24967 19.2497H13.7497V21.083H8.24967V19.2497Z" fill="#669B27"/>
</svg>
