<svg width="19" height="13" viewBox="0 0 19 13" fill="none" xmlns="http://www.w3.org/2000/svg">
<path d="M4.37777 11.8513C3.33922 11.5971 2.33751 11.3511 1.3366 11.102C0.647778 10.9305 0.294704 10.5535 0.29098 9.9061C0.278983 7.82055 0.286511 5.7349 0.286511 3.58574C0.599578 3.66292 0.885807 3.7242 1.16667 3.8043C2.43657 4.16647 3.70476 4.53464 4.97394 4.89932C6.03701 5.20479 6.72847 4.93489 7.2893 3.99975C8.0076 2.80205 8.72671 1.60484 9.46904 0.368164C10.2049 1.58959 10.9191 2.77124 11.6293 3.95536C12.2238 4.94659 12.8905 5.2105 14.0093 4.89018C15.4538 4.47657 16.8984 4.06305 18.3434 3.65106C18.4287 3.62672 18.5181 3.61625 18.654 3.58995C18.654 4.09872 18.654 4.58011 18.654 5.06151C18.654 6.61492 18.6554 8.16833 18.6534 9.72174C18.6524 10.5141 18.3457 10.9158 17.6011 11.1026C15.173 11.7116 12.7497 12.3411 10.312 12.9092C9.78513 13.032 9.1855 13.0279 8.65511 12.9148C7.23138 12.611 5.82701 12.2166 4.37777 11.8513Z" fill="white"/>
</svg>
