<svg width="20" height="21" viewBox="0 0 20 21" fill="none" xmlns="http://www.w3.org/2000/svg">
<path d="M17.333 14.583H19.1663V16.4163H0.833008V14.583H2.66634V8.16634C2.66634 6.22142 3.43896 4.35616 4.81422 2.98089C6.18949 1.60562 8.05475 0.833008 9.99967 0.833008C11.9446 0.833008 13.8099 1.60562 15.1851 2.98089C16.5604 4.35616 17.333 6.22142 17.333 8.16634V14.583ZM15.4997 14.583V8.16634C15.4997 6.70765 14.9202 5.3087 13.8888 4.27725C12.8573 3.2458 11.4584 2.66634 9.99967 2.66634C8.54098 2.66634 7.14204 3.2458 6.11059 4.27725C5.07914 5.3087 4.49967 6.70765 4.49967 8.16634V14.583H15.4997ZM7.24967 18.2497H12.7497V20.083H7.24967V18.2497Z" fill="#669B27"/>
</svg>
