<svg width="16" height="15" viewBox="0 0 16 15" fill="none" xmlns="http://www.w3.org/2000/svg">
<path d="M11.5 3.6875L15.9922 5.9375V12.0469L11.5 14.2969L7 12.0625V9.55469L4.5 10.7969L0 8.5625L0.0078125 2.4375L4.5 0.1875L8.99219 2.4375L9 4.94531L11.5 3.6875ZM14.375 6.24219L11.5 4.8125L8.625 6.24219L11.5 7.67969L14.375 6.24219ZM7.375 2.74219L4.5 1.3125L1.625 2.74219L4.5 4.17969L7.375 2.74219ZM1.00781 3.55469L1 7.9375L4 9.42969V5.04688L1.00781 3.55469ZM5 9.42969L7.00781 8.4375V5.9375L8 5.44531L7.99219 3.55469L5 5.04688V9.42969ZM8.00781 7.05469L8 11.4375L11 12.9297V8.54688L8.00781 7.05469ZM12 12.9297L14.9922 11.4297V7.05469L12 8.54688V12.9297Z" fill="url(#paint0_linear_88_3516)"/>
<defs>
<linearGradient id="paint0_linear_88_3516" x1="0.484612" y1="0.187499" x2="21.4783" y2="9.84941" gradientUnits="userSpaceOnUse">
<stop stop-color="#669B27"/>
<stop offset="1" stop-color="#11662F"/>
</linearGradient>
</defs>
</svg>
