<svg width="16" height="16" viewBox="0 0 16 16" fill="none" xmlns="http://www.w3.org/2000/svg">
<path d="M4.00017 11.4559V5.87725C4.44498 5.71999 4.81987 5.41054 5.05859 5.0036C5.29731 4.59666 5.38448 4.11843 5.3047 3.65343C5.22492 3.18843 4.98332 2.76661 4.62261 2.46252C4.26189 2.15842 3.80529 1.99163 3.3335 1.99163C2.86171 1.99163 2.40511 2.15842 2.04439 2.46252C1.68368 2.76661 1.44208 3.18843 1.3623 3.65343C1.28252 4.11843 1.36969 4.59666 1.60841 5.0036C1.84713 5.41054 2.22202 5.71999 2.66683 5.87725V11.4559C2.22202 11.6132 1.84713 11.9226 1.60841 12.3296C1.36969 12.7365 1.28252 13.2147 1.3623 13.6797C1.44208 14.1447 1.68368 14.5666 2.04439 14.8707C2.40511 15.1748 2.86171 15.3415 3.3335 15.3415C3.80529 15.3415 4.26189 15.1748 4.62261 14.8707C4.98332 14.5666 5.22492 14.1447 5.3047 13.6797C5.38448 13.2147 5.29731 12.7365 5.05859 12.3296C4.81987 11.9226 4.44498 11.6132 4.00017 11.4559ZM13.3335 11.4559V4.66659C13.3335 4.31296 13.193 3.97382 12.943 3.72378C12.6929 3.47373 12.3538 3.33325 12.0002 3.33325H8.55217L9.6095 2.27592L8.66683 1.33325L6.94283 3.05725L6.00017 3.99992L6.94283 4.94259L8.66683 6.66659L9.6095 5.72392L8.55217 4.66659H12.0002V11.4559C11.5554 11.6132 11.1805 11.9226 10.9417 12.3296C10.703 12.7365 10.6159 13.2147 10.6956 13.6797C10.7754 14.1447 11.017 14.5666 11.3777 14.8707C11.7384 15.1748 12.195 15.3415 12.6668 15.3415C13.1386 15.3415 13.5952 15.1748 13.9559 14.8707C14.3167 14.5666 14.5582 14.1447 14.638 13.6797C14.7178 13.2147 14.6306 12.7365 14.3919 12.3296C14.1532 11.9226 13.7783 11.6132 13.3335 11.4559Z" fill="url(#paint0_linear_88_3506)"/>
<defs>
<linearGradient id="paint0_linear_88_3506" x1="1.73754" y1="1.33325" x2="20.1918" y2="8.46546" gradientUnits="userSpaceOnUse">
<stop stop-color="#669B27"/>
<stop offset="1" stop-color="#11662F"/>
</linearGradient>
</defs>
</svg>
