<svg width="19" height="19" viewBox="0 0 19 19" fill="none" xmlns="http://www.w3.org/2000/svg">
<g clip-path="url(#clip0_4_522)">
<path d="M3.16699 17.4165C3.16699 15.7368 3.83425 14.1259 5.02198 12.9382C6.20971 11.7504 7.82062 11.0832 9.50033 11.0832C11.18 11.0832 12.7909 11.7504 13.9787 12.9382C15.1664 14.1259 15.8337 15.7368 15.8337 17.4165H14.2503C14.2503 16.1567 13.7499 14.9485 12.8591 14.0577C11.9683 13.1669 10.7601 12.6665 9.50033 12.6665C8.24055 12.6665 7.03237 13.1669 6.14157 14.0577C5.25077 14.9485 4.75033 16.1567 4.75033 17.4165H3.16699ZM9.50033 10.2915C6.87595 10.2915 4.75033 8.16588 4.75033 5.5415C4.75033 2.91713 6.87595 0.791504 9.50033 0.791504C12.1247 0.791504 14.2503 2.91713 14.2503 5.5415C14.2503 8.16588 12.1247 10.2915 9.50033 10.2915ZM9.50033 8.70817C11.2499 8.70817 12.667 7.29109 12.667 5.5415C12.667 3.79192 11.2499 2.37484 9.50033 2.37484C7.75074 2.37484 6.33366 3.79192 6.33366 5.5415C6.33366 7.29109 7.75074 8.70817 9.50033 8.70817Z" fill="#F37B1C"/>
</g>
<defs>
<clipPath id="clip0_4_522">
<rect width="19" height="19" fill="white"/>
</clipPath>
</defs>
</svg>
