<svg width="34" height="34" viewBox="0 0 34 34" fill="none" xmlns="http://www.w3.org/2000/svg">
<rect width="34" height="34" rx="17" fill="#F0F5E9" fill-opacity="0.3"/>
<path fill-rule="evenodd" clip-rule="evenodd" d="M23 9V12H26C26.2652 12 26.5196 12.1054 26.7071 12.2929C26.8946 12.4804 27 12.7348 27 13V23C27 23.7956 26.6839 24.5587 26.1213 25.1213C25.5587 25.6839 24.7956 26 24 26H10C9.20435 26 8.44129 25.6839 7.87868 25.1213C7.31607 24.5587 7 23.7956 7 23V9C7 8.73478 7.10536 8.48043 7.29289 8.29289C7.48043 8.10536 7.73478 8 8 8H22C22.2652 8 22.5196 8.10536 22.7071 8.29289C22.8946 8.48043 23 8.73478 23 9ZM25 23C25 23.2652 24.8946 23.5196 24.7071 23.7071C24.5196 23.8946 24.2652 24 24 24C23.7348 24 23.4804 23.8946 23.2929 23.7071C23.1054 23.5196 23 23.2652 23 23V14H25V23ZM11 13C11 12.7348 11.1054 12.4804 11.2929 12.2929C11.4804 12.1054 11.7348 12 12 12H18C18.2652 12 18.5196 12.1054 18.7071 12.2929C18.8946 12.4804 19 12.7348 19 13C19 13.2652 18.8946 13.5196 18.7071 13.7071C18.5196 13.8946 18.2652 14 18 14H12C11.7348 14 11.4804 13.8946 11.2929 13.7071C11.1054 13.5196 11 13.2652 11 13ZM13 17C13 16.7348 13.1054 16.4804 13.2929 16.2929C13.4804 16.1054 13.7348 16 14 16H18C18.2652 16 18.5196 16.1054 18.7071 16.2929C18.8946 16.4804 19 16.7348 19 17C19 17.2652 18.8946 17.5196 18.7071 17.7071C18.5196 17.8946 18.2652 18 18 18H14C13.7348 18 13.4804 17.8946 13.2929 17.7071C13.1054 17.5196 13 17.2652 13 17Z" fill="white"/>
</svg>
